<?xml version="1.0" standalone="no"?>
<!DOCTYPE svg PUBLIC "-//W3C//DTD SVG 20010904//EN"
 "http://www.w3.org/TR/2001/REC-SVG-20010904/DTD/svg10.dtd">
<svg version="1.0" xmlns="http://www.w3.org/2000/svg"
 width="300.000000pt" height="500.000000pt" viewBox="0 0 300.000000 500.000000"
 preserveAspectRatio="xMidYMid meet">
<metadata>
Created by potrace 1.16, written by Peter Selinger 2001-2019
</metadata>
<g transform="translate(0.000000,500.000000) scale(0.100000,-0.100000)"
fill="#000000" stroke="none">
<path d="M2811 4846 c-45 -25 -50 -49 -51 -235 l0 -174 -47 7 c-149 20 -159
20 -203 -5 -29 -17 -50 -39 -68 -74 -25 -48 -27 -58 -32 -262 -3 -116 -8 -214
-12 -218 -3 -4 -15 13 -26 37 -25 55 -90 123 -153 158 -30 17 -101 76 -163
135 l-42 41 15 34 c9 20 18 82 22 145 4 61 10 122 14 138 10 37 -11 85 -47
103 -24 12 -44 13 -116 5 -50 -5 -260 -7 -497 -4 -336 4 -437 2 -559 -11 -82
-9 -193 -16 -247 -16 -114 0 -172 -18 -193 -59 -8 -14 -20 -61 -27 -104 -12
-69 -11 -89 4 -161 16 -77 16 -86 0 -137 -20 -65 -21 -183 -7 -1234 9 -634 12
-715 27 -755 10 -25 26 -87 37 -139 18 -82 20 -133 20 -411 0 -215 5 -364 15
-461 9 -79 22 -236 30 -349 8 -113 19 -257 25 -320 5 -63 10 -130 10 -147 l0
-33 -190 0 c-208 0 -236 -6 -258 -55 -16 -34 -15 -60 3 -94 25 -49 51 -53 292
-46 382 11 574 10 625 -5 57 -16 101 -2 123 41 34 65 11 113 -73 150 -60 27
-72 29 -193 29 l-129 0 0 28 c0 15 -5 79 -10 142 -6 63 -17 207 -25 320 -8
113 -21 270 -30 349 -10 97 -15 246 -15 461 0 337 -7 406 -59 580 -19 61 -20
111 -27 750 -11 1060 -11 1103 10 1188 17 69 17 79 2 144 -9 39 -16 83 -16 99
l0 29 73 0 c39 0 133 7 207 15 146 16 480 19 803 8 l197 -6 0 -48 c0 -26 -9
-68 -20 -94 -11 -26 -23 -64 -26 -86 l-7 -39 -111 0 c-61 -1 -138 -7 -171 -14
-83 -18 -182 -61 -212 -91 -14 -14 -29 -25 -34 -25 -22 0 -72 -63 -95 -120
-23 -57 -34 -92 -74 -240 -5 -19 -10 -64 -10 -99 0 -53 5 -72 31 -118 17 -30
47 -69 67 -86 19 -18 47 -45 61 -61 88 -97 122 -127 176 -153 71 -36 183 -63
259 -63 l56 0 0 -155 c0 -146 -1 -155 -19 -155 -11 0 -41 -10 -68 -21 -26 -12
-79 -30 -118 -40 -120 -31 -203 -57 -232 -72 -152 -76 -183 -96 -241 -154
-100 -101 -118 -143 -88 -202 15 -28 53 -51 87 -51 24 0 79 27 79 39 0 18 106
117 145 137 110 56 200 89 315 114 30 7 72 21 92 31 21 11 39 19 41 19 7 0 21
-449 20 -615 -1 -137 -3 -155 -26 -205 -13 -30 -28 -75 -32 -100 -4 -24 -13
-54 -21 -65 -7 -11 -22 -51 -34 -90 -28 -90 -130 -356 -144 -374 -6 -7 -33
-26 -62 -42 -71 -40 -90 -89 -59 -148 18 -36 64 -55 109 -47 39 8 130 66 163
105 22 26 143 322 179 436 10 33 26 74 35 90 10 17 20 50 24 75 9 54 34 120
46 120 9 0 12 -5 65 -93 33 -55 109 -137 169 -183 56 -43 164 -100 204 -109
23 -5 38 -17 50 -38 24 -46 94 -115 124 -122 75 -19 141 46 123 121 -4 15 -20
40 -37 56 -16 17 -41 52 -54 78 -23 45 -29 50 -97 75 -183 67 -262 132 -348
287 -24 44 -122 144 -149 153 -22 7 -28 77 -37 453 l-6 242 93 0 c52 0 144 8
204 19 180 33 294 50 405 59 169 16 183 29 200 189 6 54 15 109 20 123 30 78
40 163 40 342 0 117 -4 196 -11 212 -9 19 -7 45 10 124 15 71 23 154 28 293 5
157 10 199 23 222 16 25 17 54 13 270 -2 135 -9 254 -15 270 -19 49 -87 71
-137 43z m-126 -602 l48 -7 -6 -186 c-4 -126 -13 -218 -27 -285 -11 -54 -20
-111 -20 -126 0 -23 -5 -29 -31 -34 -63 -12 -61 -18 -54 127 3 72 8 221 11
330 4 160 7 198 18 194 7 -3 35 -9 61 -13z m-665 -265 c25 -22 57 -47 71 -55
15 -7 45 -30 68 -50 l41 -37 0 -143 c0 -110 -4 -154 -17 -186 -23 -60 -60
-110 -106 -143 -39 -28 -40 -28 -229 -33 -257 -7 -326 9 -398 91 -19 22 -63
68 -97 102 -73 73 -77 93 -43 204 12 36 28 89 37 117 13 42 23 56 54 73 22 12
39 26 39 29 0 4 21 16 48 26 38 16 85 20 244 25 108 3 200 9 204 14 16 15 41
5 84 -34z m401 -585 c31 -17 98 -17 179 1 106 23 100 28 100 -73 0 -59 -7
-110 -21 -157 -11 -39 -25 -99 -30 -134 -5 -35 -11 -66 -14 -69 -3 -3 -42 -8
-87 -12 -46 -4 -110 -12 -143 -18 -243 -44 -301 -52 -378 -52 l-87 0 0 125 0
124 33 5 c17 3 55 8 82 11 116 15 275 155 306 269 11 40 11 40 24 17 7 -13 23
-30 36 -37z"/>
<path d="M1941 3916 c-87 -48 -50 -186 49 -186 51 0 100 49 100 99 0 75 -83
124 -149 87z"/>
<path d="M1541 3846 c-87 -48 -50 -186 49 -186 51 0 100 49 100 99 0 75 -83
124 -149 87z"/>
<path d="M1711 3596 c-48 -27 -63 -84 -36 -135 20 -39 21 -39 195 -69 25 -5
55 -14 67 -20 62 -34 143 16 143 89 0 35 -27 74 -67 96 -68 38 -260 63 -302
39z"/>
</g>
</svg>
